<svg width="326" height="56" viewBox="0 0 326 56" fill="none" xmlns="http://www.w3.org/2000/svg">
<g clip-path="url(#clip0_3744_969)">
<path opacity="0.32" d="M4.61133 27.6678C4.61133 40.4015 14.934 50.7242 27.6678 50.7242C40.4015 50.7242 50.7242 40.4015 50.7242 27.6678C50.7242 14.934 40.4015 4.61133 27.6678 4.61133C14.934 4.61133 4.61133 14.934 4.61133 27.6678Z" fill="#FA756D"/>
<path fill-rule="evenodd" clip-rule="evenodd" d="M22.109 22.1089C19.156 25.0619 18.5105 32.0603 18.5105 32.0603C18.1138 35.8319 19.5035 37.2216 23.2751 36.825C23.2751 36.825 30.2735 36.1794 33.2265 33.2264C36.1795 30.2733 36.8251 23.2749 36.8251 23.2749C37.2217 19.5034 35.832 18.1137 32.0605 18.5103C32.0605 18.5103 25.0621 19.1559 22.109 22.1089ZM25.3621 27.6676C25.3621 28.941 26.3944 29.9733 27.6678 29.9733C28.9411 29.9733 29.9734 28.941 29.9734 27.6676V27.6653C29.9734 26.392 28.9411 25.3597 27.6678 25.3597C26.3944 25.3597 25.3621 26.392 25.3621 27.6653V27.6676Z" fill="#EA4335"/>
</g>
<path d="M69.1119 30.8253H72.9138C72.9659 31.7368 73.6429 32.2836 74.8668 32.2836C76.1168 32.2836 76.6896 31.8409 76.6896 31.1639C76.6896 30.7733 76.4813 30.3566 75.5178 30.1483L73.1221 29.6275C70.7264 29.1067 69.5546 28.0651 69.5546 25.7735C69.5546 23.0654 71.8722 21.5029 74.997 21.5029C78.0177 21.5029 80.127 23.2737 80.127 25.9037H76.3251C76.3251 25.0184 75.7782 24.4195 74.8148 24.4195C73.9033 24.4195 73.3305 24.8882 73.3305 25.5913C73.3305 26.1902 73.8252 26.5287 74.7366 26.737L77.1584 27.2578C79.2937 27.7266 80.4655 28.7161 80.4655 30.7993C80.4655 33.5856 78.0958 35.2782 74.7106 35.2782C71.2733 35.2782 69.1119 33.4554 69.1119 30.8253ZM87.821 34.9397H83.8108V25.2527H81.337V21.9196H83.8108V17.8834H87.821V21.9196H90.2948V25.2527H87.821V34.9397ZM100.742 21.9196H104.753V34.9397H100.977L100.716 33.4814C99.9092 34.5491 98.2947 35.2782 96.7323 35.2782C93.7637 35.2782 91.9409 33.2992 91.9409 30.0962V21.9196H95.9511V28.638C95.9511 30.7733 96.6802 31.7107 98.3207 31.7107C100.039 31.7107 100.742 30.8253 100.742 28.69V21.9196ZM112.976 35.2782C109.226 35.2782 106.805 32.6221 106.805 28.5078C106.805 24.3674 109.278 21.5029 113.236 21.5029C114.851 21.5029 116.387 22.154 117.143 23.1174V15.3054H121.153V34.9397H117.377L117.169 33.2731C116.465 34.471 114.851 35.2782 112.976 35.2782ZM113.94 31.6065C115.814 31.6065 117.116 30.3045 117.116 28.3515C117.116 26.3985 115.814 25.0965 113.94 25.0965C112.039 25.0965 110.841 26.4245 110.841 28.3515C110.841 30.2785 112.039 31.6065 113.94 31.6065ZM123.123 41.1893V37.8302H125.336C126.69 37.8302 127.263 37.4135 127.784 36.0073L128.018 35.3824L122.784 21.9196H127.081L129.919 30.2785L133.07 21.9196H137.236L130.622 37.7781C129.528 40.4342 128.07 41.5539 125.779 41.5539C124.815 41.5539 123.904 41.4237 123.123 41.1893ZM145.077 28.3776C145.077 24.3674 147.837 21.5029 151.743 21.5029C155.597 21.5029 158.149 23.6122 158.409 27.0235H154.373C154.086 25.7215 153.279 25.0965 151.899 25.0965C150.206 25.0965 149.113 26.3725 149.113 28.3776C149.113 30.4608 150.128 31.6847 151.847 31.6847C153.253 31.6847 154.112 31.0337 154.373 29.7577H158.409C158.149 33.0388 155.493 35.2782 151.847 35.2782C147.733 35.2782 145.077 32.544 145.077 28.3776ZM159.902 28.4036C159.902 24.2893 162.923 21.529 167.089 21.529C171.23 21.529 174.25 24.2893 174.25 28.4036C174.25 32.518 171.23 35.2522 167.089 35.2522C162.923 35.2522 159.902 32.518 159.902 28.4036ZM163.938 28.3776C163.938 30.3566 165.214 31.6586 167.089 31.6586C168.938 31.6586 170.214 30.3566 170.214 28.3776C170.214 26.4245 168.938 25.1225 167.089 25.1225C165.214 25.1225 163.938 26.4245 163.938 28.3776ZM180.585 34.9397H176.575V21.9196H180.325L180.585 23.2737C181.236 22.3623 182.512 21.5029 184.387 21.5029C186.34 21.5029 187.59 22.4144 188.345 23.7945C189.022 22.4144 190.559 21.5029 192.434 21.5029C195.793 21.5029 197.459 23.456 197.459 26.4245V34.9397H193.449V27.5443C193.449 25.9037 192.59 25.1225 191.314 25.1225C190.168 25.1225 189.022 25.7475 189.022 27.9609V34.9397H185.012V27.5443C185.012 25.9298 184.179 25.1486 182.903 25.1486C181.757 25.1486 180.585 25.7735 180.585 27.9609V34.9397ZM200.327 41.1893V21.9196H204.103L204.311 23.508C205.04 22.3102 206.681 21.5029 208.529 21.5029C212.149 21.5029 214.675 24.0288 214.675 28.2213C214.675 32.3357 212.435 35.3043 208.555 35.3043C206.759 35.3043 205.092 34.6272 204.337 33.6377V41.1893H200.327ZM204.363 28.4296C204.363 30.3827 205.665 31.6847 207.54 31.6847C209.441 31.6847 210.639 30.3566 210.639 28.4296C210.639 26.5027 209.441 25.1746 207.54 25.1746C205.665 25.1746 204.363 26.4766 204.363 28.4296ZM220.915 35.2782C218.155 35.2782 216.436 33.6637 216.436 31.1118C216.436 28.7161 218.129 27.2318 221.254 26.9974L224.9 26.711V26.5027C224.9 25.2267 224.118 24.5497 222.686 24.5497C220.994 24.5497 220.082 25.2007 220.082 26.3725H216.749C216.749 23.4299 219.171 21.5029 222.894 21.5029C226.67 21.5029 228.806 23.6122 228.806 27.336V34.9397H225.264L225.004 33.221C224.587 34.4189 222.868 35.2782 220.915 35.2782ZM222.322 32.3096C223.858 32.3096 224.926 31.5545 224.926 30.0702V29.3671L222.894 29.5494C221.15 29.7056 220.525 30.0962 220.525 30.9295C220.525 31.867 221.098 32.3096 222.322 32.3096ZM230.744 30.8253H234.546C234.598 31.7368 235.275 32.2836 236.499 32.2836C237.749 32.2836 238.322 31.8409 238.322 31.1639C238.322 30.7733 238.114 30.3566 237.15 30.1483L234.755 29.6275C232.359 29.1067 231.187 28.0651 231.187 25.7735C231.187 23.0654 233.505 21.5029 236.629 21.5029C239.65 21.5029 241.759 23.2737 241.759 25.9037H237.958C237.958 25.0184 237.411 24.4195 236.447 24.4195C235.536 24.4195 234.963 24.8882 234.963 25.5913C234.963 26.1902 235.458 26.5287 236.369 26.737L238.791 27.2578C240.926 27.7266 242.098 28.7161 242.098 30.7993C242.098 33.5856 239.728 35.2782 236.343 35.2782C232.906 35.2782 230.744 33.4554 230.744 30.8253ZM243.256 30.8253H247.058C247.11 31.7368 247.787 32.2836 249.011 32.2836C250.261 32.2836 250.834 31.8409 250.834 31.1639C250.834 30.7733 250.625 30.3566 249.662 30.1483L247.266 29.6275C244.87 29.1067 243.699 28.0651 243.699 25.7735C243.699 23.0654 246.016 21.5029 249.141 21.5029C252.162 21.5029 254.271 23.2737 254.271 25.9037H250.469C250.469 25.0184 249.922 24.4195 248.959 24.4195C248.047 24.4195 247.474 24.8882 247.474 25.5913C247.474 26.1902 247.969 26.5287 248.881 26.737L251.302 27.2578C253.438 27.7266 254.609 28.7161 254.609 30.7993C254.609 33.5856 252.24 35.2782 248.855 35.2782C245.417 35.2782 243.256 33.4554 243.256 30.8253Z" fill="#DDDCDC"/>
<g clip-path="url(#clip1_3744_969)">
<rect x="265" y="15" width="61" height="26" rx="9.1195" fill="#FA756D" fill-opacity="0.13"/>
<path d="M280.815 34.2189C278.225 34.2189 276.657 32.2855 276.657 29.5679C276.657 26.8321 278.243 24.8258 280.888 24.8258C282.256 24.8258 283.405 25.4277 284.007 26.522V20.5761H285.703V34H284.171L284.025 32.3767C283.442 33.5987 282.238 34.2189 280.815 34.2189ZM281.162 32.6686C282.913 32.6686 283.989 31.3736 283.989 29.5132C283.989 27.6893 282.913 26.3761 281.162 26.3761C279.411 26.3761 278.389 27.6893 278.389 29.5132C278.389 31.3553 279.411 32.6686 281.162 32.6686ZM287.593 29.5314C287.593 26.7774 289.563 24.844 292.244 24.844C294.907 24.844 296.877 26.7774 296.877 29.5314C296.877 32.2855 294.907 34.2189 292.244 34.2189C289.563 34.2189 287.593 32.2855 287.593 29.5314ZM289.326 29.5314C289.326 31.3918 290.511 32.6868 292.244 32.6868C293.958 32.6868 295.162 31.3918 295.162 29.5314C295.162 27.6711 293.958 26.3761 292.244 26.3761C290.511 26.3761 289.326 27.6711 289.326 29.5314ZM298.191 29.5497C298.191 26.7591 299.96 24.8258 302.568 24.8258C304.811 24.8258 306.38 26.1025 306.69 28.0906H304.976C304.684 26.9597 303.772 26.3579 302.623 26.3579C301 26.3579 299.887 27.5981 299.887 29.5314C299.887 31.4465 300.927 32.6868 302.55 32.6868C303.772 32.6868 304.684 32.0484 304.994 30.9906H306.708C306.362 32.9239 304.702 34.2189 302.55 34.2189C299.923 34.2189 298.191 32.3585 298.191 29.5497ZM307.788 31.4101H309.429C309.429 32.322 310.122 32.8692 311.253 32.8692C312.457 32.8692 313.15 32.3767 313.15 31.556C313.15 30.9541 312.858 30.5893 311.928 30.3522L310.359 29.9874C308.773 29.6044 308.025 28.8201 308.025 27.5069C308.025 25.8654 309.411 24.8258 311.381 24.8258C313.332 24.8258 314.609 25.9201 314.646 27.6164H313.004C312.968 26.7226 312.366 26.1572 311.326 26.1572C310.25 26.1572 309.648 26.6314 309.648 27.4522C309.648 28.0541 310.086 28.4553 310.961 28.6742L312.53 29.0572C314.044 29.422 314.791 30.1151 314.791 31.4465C314.791 33.1428 313.332 34.2189 311.217 34.2189C309.119 34.2189 307.788 33.1063 307.788 31.4101Z" fill="#FA756D"/>
</g>
<defs>
<clipPath id="clip0_3744_969">
<rect width="55.3354" height="55.3354" fill="white"/>
</clipPath>
<clipPath id="clip1_3744_969">
<rect x="265" y="15" width="61" height="26" rx="9.1195" fill="white"/>
</clipPath>
</defs>
</svg>
