<svg width="484" height="56" viewBox="0 0 484 56" fill="none" xmlns="http://www.w3.org/2000/svg">
<g clip-path="url(#clip0_3754_1292)">
<path opacity="0.32" d="M4.61133 27.6678C4.61133 40.4015 14.934 50.7242 27.6678 50.7242C40.4015 50.7242 50.7242 40.4015 50.7242 27.6678C50.7242 14.934 40.4015 4.61133 27.6678 4.61133C14.934 4.61133 4.61133 14.934 4.61133 27.6678Z" fill="#FA756D"/>
<path fill-rule="evenodd" clip-rule="evenodd" d="M22.109 22.1089C19.156 25.0619 18.5105 32.0603 18.5105 32.0603C18.1138 35.8319 19.5035 37.2216 23.2751 36.825C23.2751 36.825 30.2735 36.1794 33.2265 33.2264C36.1795 30.2733 36.8251 23.2749 36.8251 23.2749C37.2217 19.5034 35.832 18.1137 32.0605 18.5103C32.0605 18.5103 25.0621 19.1559 22.109 22.1089ZM25.3621 27.6676C25.3621 28.941 26.3944 29.9733 27.6678 29.9733C28.9411 29.9733 29.9734 28.941 29.9734 27.6676V27.6653C29.9734 26.392 28.9411 25.3597 27.6678 25.3597C26.3944 25.3597 25.3621 26.392 25.3621 27.6653V27.6676Z" fill="#EA4335"/>
</g>
<path d="M69.954 35.6087L76.1283 35.6035C76.2141 37.0836 77.3144 37.9708 79.3021 37.9691C81.332 37.9674 82.2618 37.2477 82.2608 36.1482C82.2603 35.5138 81.9214 34.8375 80.3564 34.5004L76.465 33.6579C72.5736 32.8153 70.6692 31.1253 70.6661 27.4038C70.6624 23.0056 74.4241 20.4651 79.4989 20.4609C84.4045 20.4568 87.8324 23.3296 87.836 27.6009L81.6617 27.6061C81.6605 26.1682 80.7716 25.1963 79.2068 25.1976C77.7267 25.1988 76.7969 25.9608 76.7979 27.1026C76.7987 28.0753 77.6027 28.6244 79.0831 28.9615L83.0168 29.804C86.4852 30.5624 88.3896 32.1678 88.3924 35.551C88.3962 40.076 84.5501 42.8281 79.0524 42.8327C73.4701 42.8373 69.9576 39.8799 69.954 35.6087ZM100.344 42.2651L93.8309 42.2706L93.8178 26.5387L89.8003 26.542L89.7958 21.1289L93.8133 21.1256L93.8079 14.5706L100.321 14.5652L100.326 21.1201L104.344 21.1168L104.348 26.5299L100.33 26.5333L100.344 42.2651ZM121.311 21.1026L127.823 21.0972L127.841 42.2422L121.709 42.2473L121.284 39.8794C119.975 41.6144 117.354 42.8007 114.816 42.8028C109.995 42.8069 107.032 39.5953 107.028 34.3936L107.017 21.1146L113.529 21.1091L113.538 32.0199C113.541 35.4877 114.727 37.0092 117.391 37.007C120.182 37.0046 121.323 35.5658 121.32 32.098L121.311 21.1026ZM141.197 42.7808C135.107 42.7859 131.17 38.4756 131.165 31.7938C131.159 25.0697 135.173 20.4144 141.601 20.4091C144.223 20.4069 146.719 21.4621 147.946 23.0258L147.936 10.3388L154.449 10.3333L154.475 42.22L148.343 42.2251L148.003 39.5188C146.862 41.4651 144.241 42.7783 141.197 42.7808ZM142.756 36.8167C145.801 36.8141 147.914 34.6979 147.911 31.5261C147.909 28.3543 145.792 26.2416 142.747 26.2442C139.66 26.2467 137.717 28.4051 137.719 31.5346C137.722 34.6641 139.669 36.8192 142.756 36.8167ZM157.683 52.3669L157.678 46.9115L161.273 46.9085C163.472 46.9067 164.402 46.2293 165.246 43.9449L165.625 42.9296L157.107 21.0728L164.085 21.067L168.706 34.6382L173.811 21.0589L180.578 21.0532L169.858 46.8168C168.085 51.1319 165.718 52.9523 161.997 52.9554C160.432 52.9567 158.952 52.7465 157.683 52.3669ZM193.319 31.5305C193.314 25.0179 197.793 20.3622 204.136 20.3569C210.395 20.3517 214.542 23.7738 214.97 29.3134L208.415 29.3189C207.948 27.2048 206.636 26.1909 204.395 26.1928C201.646 26.195 199.871 28.2687 199.874 31.5251C199.877 34.9083 201.528 36.8945 204.319 36.8922C206.603 36.8903 207.997 35.8319 208.419 33.7593L214.974 33.7538C214.555 39.0827 210.245 42.7233 204.324 42.7282C197.642 42.7338 193.325 38.2969 193.319 31.5305ZM217.396 31.5527C217.391 24.8709 222.293 20.3841 229.059 20.3785C235.783 20.3728 240.693 24.8515 240.698 31.5333C240.704 38.2151 235.802 42.6597 229.078 42.6653C222.311 42.6709 217.402 38.2346 217.396 31.5527ZM223.951 31.505C223.954 34.719 226.028 36.8318 229.073 36.8293C232.075 36.8268 234.146 34.7105 234.143 31.4965C234.141 28.3247 232.067 26.212 229.064 26.2145C226.019 26.217 223.949 28.3332 223.951 31.505ZM250.995 42.1395L244.483 42.145L244.465 21L250.555 20.9949L250.98 23.1936C252.036 21.7126 254.107 20.3153 257.152 20.3127C260.323 20.3101 262.355 21.7886 263.583 24.0289C264.68 21.7866 267.174 20.3044 270.219 20.3018C275.675 20.2973 278.384 23.4668 278.388 28.2878L278.399 42.1167L271.887 42.1221L271.877 30.1118C271.874 27.4475 270.478 26.1799 268.406 26.1817C266.545 26.1832 264.685 27.1997 264.688 30.7944L264.697 42.1281L258.185 42.1335L258.175 30.1232C258.173 27.5012 256.818 26.2336 254.746 26.2354C252.885 26.2369 250.983 27.2534 250.986 30.8058L250.995 42.1395ZM283.064 52.2624L283.038 20.9678L289.17 20.9627L289.511 23.5421C290.693 21.5958 293.356 20.2826 296.359 20.28C302.237 20.2751 306.343 24.3739 306.349 31.1825C306.354 37.8644 302.721 42.6885 296.42 42.6937C293.502 42.6961 290.795 41.5989 289.567 39.9929L289.577 52.257L283.064 52.2624ZM289.602 31.5348C289.605 34.7066 291.721 36.8193 294.766 36.8168C297.853 36.8142 299.797 34.6558 299.794 31.5263C299.791 28.3969 297.844 26.2417 294.757 26.2443C291.712 26.2468 289.599 28.3631 289.602 31.5348ZM316.493 42.6347C312.01 42.6384 309.217 40.0188 309.213 35.8744C309.21 31.9837 311.957 29.5709 317.031 29.186L322.952 28.7159L322.951 28.3776C322.95 26.3054 321.68 25.2069 319.354 25.2088C316.605 25.2111 315.126 26.2696 315.128 28.1726L309.714 28.1772C309.71 23.3984 313.641 20.2656 319.688 20.2606C325.82 20.2555 329.291 23.6781 329.296 29.7256L329.306 42.0742L323.555 42.079L323.13 39.2882C322.455 41.2341 319.665 42.632 316.493 42.6347ZM318.773 37.8117C321.268 37.8096 323.001 36.5818 322.998 34.1713L322.998 33.0294L319.699 33.3282C316.866 33.5843 315.852 34.2195 315.853 35.5728C315.854 37.0952 316.785 37.8134 318.773 37.8117ZM332.449 35.3898L338.624 35.3846C338.71 36.8647 339.81 37.7519 341.797 37.7502C343.827 37.7485 344.757 37.0288 344.756 35.9293C344.756 35.295 344.417 34.6186 342.852 34.2816L338.96 33.439C335.069 32.5965 333.165 30.9065 333.161 27.1849C333.158 22.7868 336.919 20.2462 341.994 20.242C346.9 20.2379 350.328 23.1108 350.331 27.3821L344.157 27.3872C344.156 25.9494 343.267 24.9774 341.702 24.9787C340.222 24.98 339.292 25.742 339.293 26.8838C339.294 27.8565 340.098 28.4056 341.578 28.7426L345.512 29.5852C348.981 30.3435 350.885 31.9489 350.888 35.3321C350.892 39.8572 347.045 42.6092 341.548 42.6138C335.965 42.6185 332.453 39.6611 332.449 35.3898ZM352.768 35.3728L358.943 35.3677C359.029 36.8478 360.129 37.735 362.116 37.7333C364.146 37.7316 365.076 37.0119 365.075 35.9124C365.075 35.278 364.736 34.6017 363.171 34.2646L359.279 33.4221C355.388 32.5795 353.484 30.8895 353.48 27.168C353.477 22.7698 357.238 20.2293 362.313 20.2251C367.219 20.221 370.647 23.0938 370.65 27.3651L364.476 27.3703C364.475 25.9324 363.586 24.9605 362.021 24.9618C360.541 24.963 359.611 25.725 359.612 26.8668C359.613 27.8395 360.417 28.3886 361.897 28.7257L365.831 29.5682C369.3 30.3266 371.204 31.932 371.207 35.3152C371.211 39.8402 367.364 42.5923 361.867 42.5969C356.284 42.6015 352.772 39.6441 352.768 35.3728Z" fill="#414141"/>
<g clip-path="url(#clip1_3754_1292)">
<rect x="384" y="7.08252" width="99.0657" height="42.2247" rx="14.8103" transform="rotate(-0.0477713 384 7.08252)" fill="#FA756D" fill-opacity="0.13"/>
<path d="M409.709 36.7923C405.503 36.7958 402.953 33.6581 402.949 29.2446C402.945 24.8016 405.52 21.5411 409.815 21.5376C412.036 21.5357 413.903 22.5116 414.882 24.2881L414.874 14.6317L417.629 14.6294L417.647 36.4302L415.159 36.4323L414.92 33.7962C413.973 35.7816 412.019 36.7903 409.709 36.7923ZM410.27 34.2741C413.113 34.2717 414.859 32.1672 414.857 29.1459C414.854 26.1838 413.105 24.0526 410.261 24.0549C407.417 24.0573 405.761 26.1914 405.763 29.1534C405.765 32.1451 407.426 34.2764 410.27 34.2741ZM420.71 29.1706C420.706 24.6979 423.903 21.5554 428.257 21.5518C432.581 21.5482 435.783 24.6853 435.787 29.158C435.79 33.6307 432.594 36.7732 428.269 36.7768C423.915 36.7804 420.714 33.6433 420.71 29.1706ZM423.524 29.1683C423.526 32.1896 425.453 34.291 428.267 34.2887C431.052 34.2863 433.005 32.1817 433.002 29.1604C433 26.139 431.043 24.0376 428.259 24.0399C425.445 24.0423 423.521 26.147 423.524 29.1683ZM437.921 29.1859C437.917 24.6539 440.788 21.5117 445.024 21.5082C448.667 21.5052 451.216 23.5765 451.722 26.8047L448.938 26.807C448.463 24.971 446.981 23.9947 445.115 23.9963C442.478 23.9985 440.673 26.0142 440.676 29.154C440.678 32.2641 442.368 34.2769 445.005 34.2747C446.989 34.2731 448.469 33.2351 448.972 31.5167L451.756 31.5144C451.196 34.6546 448.502 36.7599 445.007 36.7628C440.741 36.7664 437.925 33.7474 437.921 29.1859ZM453.509 32.1942L456.175 32.192C456.176 33.673 457.303 34.5607 459.139 34.5591C461.094 34.5575 462.219 33.7568 462.218 32.4239C462.217 31.4464 461.743 30.8544 460.232 30.4706L457.684 29.8803C455.106 29.2604 453.891 27.9877 453.889 25.855C453.887 23.1892 456.137 21.4989 459.336 21.4963C462.505 21.4936 464.58 23.2691 464.642 26.0238L461.976 26.026C461.915 24.5747 460.937 23.6572 459.249 23.6586C457.501 23.6601 456.524 24.4311 456.525 25.764C456.526 26.7415 457.238 27.3925 458.66 27.7468L461.208 28.3667C463.667 28.9571 464.882 30.0816 464.884 32.2439C464.886 34.9987 462.518 36.7482 459.082 36.7511C455.675 36.754 453.512 34.9489 453.509 32.1942Z" fill="#FA756D"/>
</g>
<defs>
<clipPath id="clip0_3754_1292">
<rect width="55.3354" height="55.3354" fill="white"/>
</clipPath>
<clipPath id="clip1_3754_1292">
<rect x="384" y="7.08252" width="99.0657" height="42.2247" rx="14.8103" transform="rotate(-0.0477713 384 7.08252)" fill="white"/>
</clipPath>
</defs>
</svg>
