<svg width="488" height="56" viewBox="0 0 488 56" fill="none" xmlns="http://www.w3.org/2000/svg">
<g clip-path="url(#clip0_3754_1292)">
<path opacity="0.32" d="M4.61133 27.6678C4.61133 40.4015 14.934 50.7242 27.6678 50.7242C40.4015 50.7242 50.7242 40.4015 50.7242 27.6678C50.7242 14.934 40.4015 4.61133 27.6678 4.61133C14.934 4.61133 4.61133 14.934 4.61133 27.6678Z" fill="#FA756D"/>
<path fill-rule="evenodd" clip-rule="evenodd" d="M22.109 22.1089C19.156 25.0619 18.5105 32.0603 18.5105 32.0603C18.1138 35.8319 19.5035 37.2216 23.2751 36.825C23.2751 36.825 30.2735 36.1794 33.2265 33.2264C36.1795 30.2733 36.8251 23.2749 36.8251 23.2749C37.2217 19.5034 35.832 18.1137 32.0605 18.5103C32.0605 18.5103 25.0621 19.1559 22.109 22.1089ZM25.3621 27.6676C25.3621 28.941 26.3944 29.9733 27.6678 29.9733C28.9411 29.9733 29.9734 28.941 29.9734 27.6676V27.6653C29.9734 26.392 28.9411 25.3597 27.6678 25.3597C26.3944 25.3597 25.3621 26.392 25.3621 27.6653V27.6676Z" fill="#EA4335"/>
</g>
<path d="M69.954 35.6087L76.1283 35.6035C76.2141 37.0836 77.3144 37.9708 79.3021 37.9691C81.332 37.9674 82.2618 37.2477 82.2608 36.1482C82.2603 35.5138 81.9214 34.8375 80.3564 34.5004L76.465 33.6579C72.5736 32.8153 70.6692 31.1253 70.6661 27.4038C70.6624 23.0056 74.4241 20.4651 79.4989 20.4609C84.4045 20.4568 87.8324 23.3296 87.836 27.6009L81.6617 27.6061C81.6605 26.1682 80.7716 25.1963 79.2068 25.1976C77.7267 25.1988 76.7969 25.9608 76.7979 27.1026C76.7987 28.0753 77.6027 28.6244 79.0831 28.9615L83.0168 29.804C86.4852 30.5624 88.3896 32.1678 88.3924 35.551C88.3962 40.076 84.5501 42.8281 79.0524 42.8327C73.4701 42.8373 69.9576 39.8799 69.954 35.6087ZM100.344 42.2651L93.8309 42.2706L93.8178 26.5387L89.8003 26.542L89.7958 21.1289L93.8133 21.1256L93.8079 14.5706L100.321 14.5652L100.326 21.1201L104.344 21.1168L104.348 26.5299L100.33 26.5333L100.344 42.2651ZM121.311 21.1026L127.823 21.0972L127.841 42.2422L121.709 42.2473L121.284 39.8794C119.975 41.6144 117.354 42.8007 114.816 42.8028C109.995 42.8069 107.032 39.5953 107.028 34.3936L107.017 21.1146L113.529 21.1091L113.538 32.0199C113.541 35.4877 114.727 37.0092 117.391 37.007C120.182 37.0046 121.323 35.5658 121.32 32.098L121.311 21.1026ZM141.197 42.7808C135.107 42.7859 131.17 38.4756 131.165 31.7938C131.159 25.0697 135.173 20.4144 141.601 20.4091C144.223 20.4069 146.719 21.4621 147.946 23.0258L147.936 10.3388L154.449 10.3333L154.475 42.22L148.343 42.2251L148.003 39.5188C146.862 41.4651 144.241 42.7783 141.197 42.7808ZM142.756 36.8167C145.801 36.8141 147.914 34.6979 147.911 31.5261C147.909 28.3543 145.792 26.2416 142.747 26.2442C139.66 26.2467 137.717 28.4051 137.719 31.5346C137.722 34.6641 139.669 36.8192 142.756 36.8167ZM157.683 52.3669L157.678 46.9115L161.273 46.9085C163.472 46.9067 164.402 46.2293 165.246 43.9449L165.625 42.9296L157.107 21.0728L164.085 21.067L168.706 34.6382L173.811 21.0589L180.578 21.0532L169.858 46.8168C168.085 51.1319 165.718 52.9523 161.997 52.9554C160.432 52.9567 158.952 52.7465 157.683 52.3669ZM193.319 31.5305C193.314 25.0179 197.793 20.3622 204.136 20.3569C210.395 20.3517 214.542 23.7738 214.97 29.3134L208.415 29.3189C207.948 27.2048 206.636 26.1909 204.395 26.1928C201.646 26.195 199.871 28.2687 199.874 31.5251C199.877 34.9083 201.528 36.8945 204.319 36.8922C206.603 36.8903 207.997 35.8319 208.419 33.7593L214.974 33.7538C214.555 39.0827 210.245 42.7233 204.324 42.7282C197.642 42.7338 193.325 38.2969 193.319 31.5305ZM217.396 31.5527C217.391 24.8709 222.293 20.3841 229.059 20.3785C235.783 20.3728 240.693 24.8515 240.698 31.5333C240.704 38.2151 235.802 42.6597 229.078 42.6653C222.311 42.6709 217.402 38.2346 217.396 31.5527ZM223.951 31.505C223.954 34.719 226.028 36.8318 229.073 36.8293C232.075 36.8268 234.146 34.7105 234.143 31.4965C234.141 28.3247 232.067 26.212 229.064 26.2145C226.019 26.217 223.949 28.3332 223.951 31.505ZM250.995 42.1395L244.483 42.145L244.465 21L250.555 20.9949L250.98 23.1936C252.036 21.7126 254.107 20.3153 257.152 20.3127C260.323 20.3101 262.355 21.7886 263.583 24.0289C264.68 21.7866 267.174 20.3044 270.219 20.3018C275.675 20.2973 278.384 23.4668 278.388 28.2878L278.399 42.1167L271.887 42.1221L271.877 30.1118C271.874 27.4475 270.478 26.1799 268.406 26.1817C266.545 26.1832 264.685 27.1997 264.688 30.7944L264.697 42.1281L258.185 42.1335L258.175 30.1232C258.173 27.5012 256.818 26.2336 254.746 26.2354C252.885 26.2369 250.983 27.2534 250.986 30.8058L250.995 42.1395ZM283.064 52.2624L283.038 20.9678L289.17 20.9627L289.511 23.5421C290.693 21.5958 293.356 20.2826 296.359 20.28C302.237 20.2751 306.343 24.3739 306.349 31.1825C306.354 37.8644 302.721 42.6885 296.42 42.6937C293.502 42.6961 290.795 41.5989 289.567 39.9929L289.577 52.257L283.064 52.2624ZM289.602 31.5348C289.605 34.7066 291.721 36.8193 294.766 36.8168C297.853 36.8142 299.797 34.6558 299.794 31.5263C299.791 28.3969 297.844 26.2417 294.757 26.2443C291.712 26.2468 289.599 28.3631 289.602 31.5348ZM316.493 42.6347C312.01 42.6384 309.217 40.0188 309.213 35.8744C309.21 31.9837 311.957 29.5709 317.031 29.186L322.952 28.7159L322.951 28.3776C322.95 26.3054 321.68 25.2069 319.354 25.2088C316.605 25.2111 315.126 26.2696 315.128 28.1726L309.714 28.1772C309.71 23.3984 313.641 20.2656 319.688 20.2606C325.82 20.2555 329.291 23.6781 329.296 29.7256L329.306 42.0742L323.555 42.079L323.13 39.2882C322.455 41.2341 319.665 42.632 316.493 42.6347ZM318.773 37.8117C321.268 37.8096 323.001 36.5818 322.998 34.1713L322.998 33.0294L319.699 33.3282C316.866 33.5843 315.852 34.2195 315.853 35.5728C315.854 37.0952 316.785 37.8134 318.773 37.8117ZM332.449 35.3898L338.624 35.3846C338.71 36.8647 339.81 37.7519 341.797 37.7502C343.827 37.7485 344.757 37.0288 344.756 35.9293C344.756 35.295 344.417 34.6186 342.852 34.2816L338.96 33.439C335.069 32.5965 333.165 30.9065 333.161 27.1849C333.158 22.7868 336.919 20.2462 341.994 20.242C346.9 20.2379 350.328 23.1108 350.331 27.3821L344.157 27.3872C344.156 25.9494 343.267 24.9774 341.702 24.9787C340.222 24.98 339.292 25.742 339.293 26.8838C339.294 27.8565 340.098 28.4056 341.578 28.7426L345.512 29.5852C348.981 30.3435 350.885 31.9489 350.888 35.3321C350.892 39.8572 347.045 42.6092 341.548 42.6138C335.965 42.6185 332.453 39.6611 332.449 35.3898ZM352.768 35.3728L358.943 35.3677C359.029 36.8478 360.129 37.735 362.116 37.7333C364.146 37.7316 365.076 37.0119 365.075 35.9124C365.075 35.278 364.736 34.6017 363.171 34.2646L359.279 33.4221C355.388 32.5795 353.484 30.8895 353.48 27.168C353.477 22.7698 357.238 20.2293 362.313 20.2251C367.219 20.221 370.647 23.0938 370.65 27.3651L364.476 27.3703C364.475 25.9324 363.586 24.9605 362.021 24.9618C360.541 24.963 359.611 25.725 359.612 26.8668C359.613 27.8395 360.417 28.3886 361.897 28.7257L365.831 29.5682C369.3 30.3266 371.204 31.932 371.207 35.3152C371.211 39.8402 367.364 42.5923 361.867 42.5969C356.284 42.6015 352.772 39.6441 352.768 35.3728Z" fill="#DDDCDC"/>
<g clip-path="url(#clip1_3754_1292)">
<rect x="388" y="9.08252" width="99.0657" height="42.2247" rx="14.8103" transform="rotate(-0.0477713 388 9.08252)" fill="#FA756D" fill-opacity="0.13"/>
<path d="M413.709 38.7923C409.503 38.7958 406.953 35.6581 406.949 31.2446C406.945 26.8016 409.52 23.5411 413.815 23.5376C416.036 23.5357 417.903 24.5116 418.882 26.2881L418.874 16.6317L421.629 16.6294L421.647 38.4302L419.159 38.4323L418.92 35.7962C417.973 37.7816 416.019 38.7903 413.709 38.7923ZM414.27 36.2741C417.113 36.2717 418.859 34.1672 418.857 31.1459C418.854 28.1838 417.105 26.0526 414.261 26.0549C411.417 26.0573 409.761 28.1914 409.763 31.1534C409.765 34.1451 411.426 36.2764 414.27 36.2741ZM424.71 31.1706C424.706 26.6979 427.903 23.5554 432.257 23.5518C436.581 23.5482 439.783 26.6853 439.787 31.158C439.79 35.6307 436.594 38.7732 432.269 38.7768C427.915 38.7804 424.714 35.6433 424.71 31.1706ZM427.524 31.1683C427.526 34.1896 429.453 36.291 432.267 36.2887C435.052 36.2863 437.005 34.1817 437.002 31.1604C437 28.139 435.043 26.0376 432.259 26.0399C429.445 26.0423 427.521 28.147 427.524 31.1683ZM441.921 31.1859C441.917 26.6539 444.788 23.5117 449.024 23.5082C452.667 23.5052 455.216 25.5765 455.722 28.8047L452.938 28.807C452.463 26.971 450.981 25.9947 449.115 25.9963C446.478 25.9985 444.673 28.0142 444.676 31.154C444.678 34.2641 446.368 36.2769 449.005 36.2747C450.989 36.2731 452.469 35.2351 452.972 33.5167L455.756 33.5144C455.196 36.6546 452.502 38.7599 449.007 38.7628C444.741 38.7664 441.925 35.7474 441.921 31.1859ZM457.509 34.1942L460.175 34.192C460.176 35.673 461.303 36.5607 463.139 36.5591C465.094 36.5575 466.219 35.7568 466.218 34.4239C466.217 33.4464 465.743 32.8544 464.232 32.4706L461.684 31.8803C459.106 31.2604 457.891 29.9877 457.889 27.855C457.887 25.1892 460.137 23.4989 463.336 23.4963C466.505 23.4936 468.58 25.2691 468.642 28.0238L465.976 28.026C465.915 26.5747 464.937 25.6572 463.249 25.6586C461.501 25.6601 460.524 26.4311 460.525 27.764C460.526 28.7415 461.238 29.3925 462.66 29.7468L465.208 30.3667C467.667 30.9571 468.882 32.0816 468.884 34.2439C468.886 36.9987 466.518 38.7482 463.082 38.7511C459.675 38.754 457.512 36.9489 457.509 34.1942Z" fill="#FA756D"/>
</g>
<defs>
<clipPath id="clip0_3754_1292">
<rect width="55.3354" height="55.3354" fill="white"/>
</clipPath>
<clipPath id="clip1_3754_1292">
<rect x="388" y="9.08252" width="99.0657" height="42.2247" rx="14.8103" transform="rotate(-0.0477713 388 9.08252)" fill="white"/>
</clipPath>
</defs>
</svg>
